# xmcd
#
# Track frame offsets:
#	150
#	14521
#	42517
#	71259
#	82356
#	94636
#	124231
#	139778
#
# Disc length: 2044 seconds
# Revision: 0
# Processed by: cddbd v1.5.2PL0 Copyright (c) Steve Scherf et al.
# Submitted via: dBpowerAMP V12.0
#
DISCID=6e07fa08
DTITLE=Roy Buchanan - Second Album
DYEAR=1973
DGENRE=Blues
TTITLE0=Filthy Teddy
TTITLE1=After Hours
TTITLE2=Five String Blues
TTITLE3=Thank You Lord
TTITLE4=Treat Her Right
TTITLE5=I Won't Tell You No Lies
TTITLE6=Tribute to Elmore James
TTITLE7=She Once Lived Here
EXTD=
EXTT0=
EXTT1=
EXTT2=
EXTT3=
EXTT4=
EXTT5=
EXTT6=
EXTT7=
PLAYORDER=
